HIERARCHY
ROOT Hips
{
	OFFSET 0.000000 0.000000 0.000000 
	CHANNELS 6 Xposition Yposition Zposition Yrotation Zrotation Xrotation 
	JOINT Lumbar
	{
		OFFSET 0.000000 0.000000 0.000000 
		CHANNELS 3 Zrotation Xrotation Yrotation
		JOINT Neck
		{
			OFFSET 0.000000 0.445665 0.000000 
			CHANNELS 3 Zrotation Xrotation Yrotation
			End Site
			{
				OFFSET 0.000000 0.227535 0.000000 
			}
		}
		JOINT RightShoulder
		{
			OFFSET 0.019635 0.377685 0.194865 
			CHANNELS 3 Zrotation Xrotation Yrotation
			JOINT RightElbow
			{
				OFFSET 0.000000 -0.243375 0.000000 
				CHANNELS 2 Zrotation Yrotation
				JOINT RightWrist
				{
					OFFSET 0.000000 -0.264825 0.000000 
					CHANNELS 2 Zrotation Xrotation
					End Site
					{
						OFFSET 0.006600 -0.176220 0.000990 
					}
				}
			}
		}
		JOINT LeftShoulder
		{
			OFFSET 0.019635 0.377685 -0.194865 
			CHANNELS 3 Zrotation Xrotation Yrotation
			JOINT LeftElbow
			{
				OFFSET 0.000000 -0.243375 0.000000 
				CHANNELS 2 Zrotation Yrotation
				JOINT LeftWrist
				{
					OFFSET 0.000000 -0.264825 0.000000 
					CHANNELS 2 Zrotation Xrotation
					End Site
					{
						OFFSET 0.006600 -0.176220 -0.000990 
					}
				}
			}
		}
	}
	JOINT RightHip
	{
		OFFSET 0.052140 -0.069960 0.075570 
		CHANNELS 3 Zrotation Xrotation Yrotation
		JOINT RightKnee
		{
			OFFSET 0.000000 -0.402270 0.000000 
			CHANNELS 1 Zrotation
			JOINT RightAnkle
			{
				OFFSET 0.000000 -0.404085 0.000000 
				CHANNELS 3 Zrotation Xrotation Yrotation
				End Site
				{
					OFFSET 0.204105 -0.089430 0.008415 
				}
			}
		}
	}
	JOINT LeftHip
	{
		OFFSET 0.052140 -0.069960 -0.075570 
		CHANNELS 3 Zrotation Xrotation Yrotation
		JOINT LeftKnee
		{
			OFFSET 0.000000 -0.402270 0.000000 
			CHANNELS 1 Zrotation
			JOINT LeftAnkle
			{
				OFFSET 0.000000 -0.404085 0.000000 
				CHANNELS 3 Zrotation Xrotation Yrotation
				End Site
				{
					OFFSET 0.204105 -0.089430 -0.008415 
				}
			}
		}
	}
}
MOTION
Frames: 27
Frame Time: 0.02
-0.16293 0.02607 1.30044 724.25131 -28.34747 -6.21337 35.65353 0.72697 -2.23115 -20.69606 14.48538 -2.11416 166.38694 -171.25707 -87.14688 134.3013 127.78455 -75.22933 -21.88674 -29.12865 13.90851 -1.25216 51.37613 -65.30814 -18.47606 -0.86545 46.32576 6.44291 -17.19853 -25.5142 -8.01856 -1.62518 -3.10816 36.72766 21.41724 -7.90664 -44.31122 -11.19602 -1.0128 1.94149
-0.15517 0.02734 1.30475 724.49704 -28.25844 -6.12287 35.554 0.82375 -1.78526 -20.74792 14.37986 -2.11417 166.38693 -171.25706 -87.14687 134.3013 127.55287 -75.22932 -21.88661 -29.42919 13.5967 -0.54486 51.32147 -61.41723 -19.473 -1.52858 45.2044 6.79292 -17.43055 -24.61099 -7.96811 -1.61003 -3.09721 38.53227 21.67061 -8.20474 -46.97547 -11.56548 -1.05285 1.93518
-0.14809 0.02848 1.30855 724.67011 -28.12098 -6.01643 35.38493 0.90938 -1.25465 -20.86513 14.30399 -2.11418 166.38693 -171.25705 -87.14687 134.3013 127.22335 -75.22929 -21.8864 -29.72397 13.23082 0.24599 51.38098 -56.65546 -20.67022 -2.34362 44.05751 7.13224 -17.58447 -23.66599 -7.92506 -1.58822 -3.08196 40.29472 21.82844 -8.39414 -49.49434 -11.83111 -1.03369 1.95342
-0.14073 0.02969 1.31252 724.87475 -28.01531 -5.91431 35.25656 0.99883 -0.76836 -20.95102 14.2015 -2.11419 166.38692 -171.25704 -87.14687 134.3013 126.93526 -75.22928 -21.88623 -30.02081 12.90016 0.9744 51.38158 -52.57209 -21.68412 -3.04641 42.93647 7.46949 -17.76933 -22.74116 -7.87983 -1.5697 -3.06895 42.05693 22.01252 -8.62959 -51.9951 -12.13219 -1.03565 1.96294
-0.13324 0.03089 1.31671 725.08395 -27.86989 -5.82436 35.09019 1.09426 -0.25347 -21.04218 14.15326 -2.1142 166.38692 -171.25702 -87.14686 134.3013 126.65874 -75.22926 -21.88604 -30.31967 12.52587 1.80292 51.41501 -47.31669 -23.08039 -3.92833 41.75167 7.83793 -17.97052 -21.79874 -7.83735 -1.55046 -3.05563 43.92446 22.26936 -8.8757 -54.88496 -12.48622 -1.06195 1.96237
-0.12619 0.03205 1.32034 725.2677 -27.79504 -5.70571 34.9859 1.17466 0.21949 -21.13838 13.99908 -2.11421 166.38691 -171.25701 -87.14686 134.3013 126.33593 -75.22924 -21.88587 -30.61194 12.22905 2.445 51.40492 -44.26586 -23.73768 -4.47788 40.69575 8.13771 -18.12172 -20.88964 -7.78139 -1.53044 -3.04072 45.54967 22.35307 -9.07267 -56.90504 -12.70523 -1.02508 1.98786
-0.12012 0.0332 1.32258 725.39042 -27.92881 -5.50732 35.075 1.2121 0.56728 -21.23391 13.55116 -2.11422 166.38691 -171.25702 -87.14686 134.3013 125.90221 -75.22923 -21.88577 -30.90128 12.15978 2.53981 51.26024 -47.78007 -22.21908 -4.03113 39.99357 8.25562 -18.13502 -20.06188 -7.77264 -1.51748 -3.03395 46.56371 21.96704 -9.18282 -56.70315 -12.56324 -0.81634 2.08464
-0.11447 0.0343 1.32426 725.49196 -28.13485 -5.28154 35.22813 1.23543 0.86727 -21.3323 12.99505 -2.11424 166.38691 -171.25702 -87.14686 134.3013 125.42674 -75.22922 -21.88569 -31.18176 12.16991 2.44706 51.06549 -53.49082 -19.96707 -3.25276 39.42435 8.30373 -18.10372 -19.27501 -7.73794 -1.50306 -3.02422 47.32339 21.41277 -9.23862 -55.60044 -12.29198 -0.55301 2.20347
-0.10863 0.03539 1.32617 725.6086 -28.30618 -5.07092 35.34863 1.26777 1.18152 -21.42858 12.48438 -2.11426 166.38691 -171.25702 -87.14686 134.3013 124.97496 -75.22921 -21.8856 -31.45752 12.14347 2.44782 50.88389 -58.0273 -18.10578 -2.65265 38.79962 8.38015 -18.10638 -18.484 -7.65344 -1.48375 -3.00758 48.16606 20.94499 -9.3124 -54.81357 -12.08659 -0.31595 2.31188
-0.10279 0.03662 1.32821 725.69863 -28.48318 -4.84762 35.48131 1.28867 1.53093 -21.53021 11.98916 -2.11427 166.38692 -171.25703 -87.14686 134.3013 124.49953 -75.2292 -21.88549 -31.77027 12.11791 2.41485 50.74491 -63.29014 -16.00414 -1.93956 38.15148 8.47026 -18.05142 -17.62834 -7.81279 -1.48569 -3.02313 49.14677 20.43104 -9.43268 -54.41978 -11.84275 -0.05031 2.43281
-0.09705 0.03754 1.32983 725.84119 -28.66684 -4.64531 35.60512 1.3303 1.79386 -21.62092 11.43732 -2.11429 166.38692 -171.25703 -87.14686 134.3013 124.06515 -75.22919 -21.88544 -32.0036 12.10918 2.40864 50.5062 -67.55602 -14.23255 -1.3835 37.58619 8.51587 -18.10321 -16.9202 -7.47862 -1.44556 -2.9741 49.77815 19.97521 -9.41696 -52.99158 -11.65571 0.14247 2.52007
-0.09151 0.03764 1.3305 726.12412 -28.84567 -4.5003 35.68548 1.4317 1.83565 -21.67696 10.7417 -2.11431 166.38692 -171.25704 -87.14686 134.3013 123.75147 -75.22921 -21.88561 -32.02283 12.13568 2.503 49.98336 -68.69653 -13.49238 -1.31847 37.19889 8.45153 -18.4935 -16.58823 -5.60382 -1.26869 -2.72027 49.52495 19.71511 -9.28099 -48.96434 -11.60413 0.34565 2.61943
-0.08606 0.03743 1.33074 726.46278 -29.02993 -4.37893 35.75556 1.55465 1.79058 -21.72221 9.99553 -2.11433 166.38693 -171.25705 -87.14687 134.3013 123.48171 -75.22923 -21.88585 -31.96198 12.17534 2.63342 49.3656 -68.74203 -13.11615 -1.42503 36.89385 8.34558 -18.98748 -16.40759 -3.26289 -1.05342 -2.40624 48.92768 19.52052 -8.96861 -43.92645 -11.62371 0.43621 2.66592
-0.08057 0.03734 1.33113 726.78283 -29.2157 -4.2515 35.83295 1.66839 1.78084 -21.77466 9.28117 -2.11435 166.38693 -171.25706 -87.14687 134.3013 123.19405 -75.22926 -21.88605 -31.93576 12.20356 2.76021 48.80402 -69.17167 -12.61578 -1.46975 36.56336 8.26148 -19.41228 -16.1717 -1.26208 -0.86951 -2.13814 48.47402 19.30076 -8.57477 -39.32069 -11.64706 0.42432 2.66083
-0.07508 0.03732 1.33172 727.07402 -29.38744 -4.10288 35.9018 1.77921 1.78672 -21.8179 8.52473 -2.11437 166.38693 -171.25707 -87.14687 134.3013 122.89564 -75.22928 -21.88629 -31.91638 12.25657 2.82885 48.18417 -70.11327 -11.9305 -1.44117 36.18741 8.16271 -19.92672 -15.8798 1.26189 -0.62697 -1.79322 48.0576 19.05714 -8.84813 -34.77545 -11.51693 1.04293 2.96535
-0.06961 0.03709 1.3318 727.4385 -29.58842 -4.00495 35.98466 1.90136 1.74036 -21.87728 7.84662 -2.11439 166.38694 -171.25708 -87.14688 134.3013 122.63127 -75.2293 -21.88644 -31.86422 12.26131 3.02687 47.66572 -69.75426 -11.70784 -1.60242 35.92356 8.08532 -20.28204 -15.74039 2.83077 -0.49726 -1.59194 47.49492 18.87908 -7.7072 -29.90434 -11.72064 0.34599 2.62515
-0.06416 0.03641 1.33068 727.99455 -29.8711 -4.0362 36.11261 2.04994 1.56906 -21.98759 7.38678 -2.11441 166.38694 -171.25708 -87.14688 134.3013 122.44485 -75.2293 -21.88648 -31.73819 12.11895 3.59655 47.43383 -65.58506 -12.83969 -2.31646 35.95159 8.07878 -20.15199 -15.98173 1.43236 -0.68981 -1.82049 46.52885 18.88337 -2.57427 -24.14175 -12.86438 -4.16348 0.40986
-0.05872 0.03554 1.32905 728.6218 -30.18194 -4.11858 36.25389 2.20903 1.34925 -22.11394 7.01002 -2.11442 166.38694 -171.25708 -87.14688 134.3013 122.29238 -75.22929 -21.8864 -31.58262 11.92956 4.29111 47.31054 -60.2167 -14.4001 -3.20516 36.08806 8.09503 -19.862 -16.37193 -0.9085 -0.99656 -2.19242 45.44321 18.94908 3.94239 -18.13562 -14.3332 -9.94791 -2.42946
-0.05328 0.03475 1.3276 729.21497 -30.47839 -4.18119 36.38629 2.3633 1.15254 -22.2303 6.60256 -2.11444 166.38694 -171.25708 -87.14688 134.3013 122.12804 -75.22928 -21.8863 -31.44245 11.76773 4.91507 47.14876 -55.7156 -15.65536 -3.96787 36.17313 8.10037 -19.65939 -16.69567 -2.66965 -1.25078 -2.48642 44.46995 18.97601 9.75151 -12.40174 -15.63368 -15.02139 -4.91635
-0.04786 0.03396 1.32637 729.81823 -30.78297 -4.2306 36.53059 2.51911 0.94633 -22.35713 6.16343 -2.11445 166.38694 -171.25708 -87.14688 134.30131 121.95014 -75.22931 -21.88652 -31.29083 11.57859 5.6014 46.93802 -49.8497 -17.37695 -4.92869 36.27183 8.10737 -19.39964 -17.01884 -5.03177 -1.5082 -2.83158 43.24422 19.05061 15.93588 -5.94834 -17.03368 -20.68146 -7.70796
-0.04237 0.03314 1.32455 730.41558 -31.07574 -4.31854 36.65301 2.67316 0.75201 -22.4668 5.81073 -2.11446 166.38694 -171.25707 -87.14688 134.3013 121.80802 -75.22926 -21.88606 -31.15749 11.43709 6.18357 46.85595 -46.51472 -18.23935 -5.52176 36.36465 8.11583 -19.21793 -17.37765 -6.39963 -1.78424 -3.10583 42.51456 19.04014 21.61877 -0.95101 -18.28999 -25.38673 -9.99701
-0.03677 0.03234 1.32133 730.98829 -31.34145 -4.50664 36.71532 2.82592 0.58178 -22.51903 5.67602 -2.11448 166.38692 -171.25705 -87.14686 134.3013 121.75577 -75.22899 -21.8836 -31.0786 11.41968 6.47898 47.1056 -50.80746 -16.49773 -5.00955 36.43257 8.13115 -19.30521 -17.78906 -4.55243 -2.10445 -3.14251 43.23724 18.77538 25.98254 -0.02635 -19.18123 -27.44671 -10.88155
-0.03108 0.03152 1.31753 731.55069 -31.59192 -4.73012 36.75469 2.9751 0.42955 -22.55459 5.6256 -2.11449 166.3869 -171.25702 -87.14685 134.30129 121.7381 -75.22865 -21.88049 -31.01998 11.45463 6.66041 47.48038 -57.62294 -13.90067 -4.13011 36.48703 8.14524 -19.47374 -18.2325 -1.71593 -2.43607 -3.10437 44.45532 18.42317 29.72456 -0.58301 -19.89761 -28.45206 -11.21662
-0.02538 0.0307 1.31393 732.11146 -31.84118 -4.9336 36.80207 3.12203 0.28293 -22.60191 5.53731 -2.11451 166.38689 -171.25699 -87.14683 134.30128 121.705 -75.22836 -21.87778 -30.95479 11.47884 6.87176 47.79706 -63.07038 -11.77385 -3.44767 36.53552 8.15529 -19.59464 -18.6663 0.50455 -2.74875 -3.1053 45.41313 18.11379 33.47625 -0.47053 -20.61805 -29.73136 -11.70944
-0.01992 0.02991 1.31057 732.70109 -32.12582 -5.15681 36.85944 3.28651 0.07605 -22.63228 5.45074 -2.11452 166.38687 -171.25696 -87.14681 134.30127 121.67258 -75.22801 -21.87464 -30.87799 11.4491 7.17501 48.12484 -69.43736 -9.30948 -2.6405 36.63898 8.18779 -19.75365 -19.08338 3.3821 -3.12237 -3.09011 46.51396 17.79442 38.39936 -0.328 -21.65959 -31.8915 -12.59802
-0.01391 0.02905 1.30657 733.22763 -32.33271 -5.34491 36.8912 3.41246 -5e-05 -22.6936 5.37867 -2.11453 166.38685 -171.25694 -87.1468 134.30126 121.6457 -75.22776 -21.87225 -30.82982 11.54129 7.26425 48.45508 -74.47051 -7.35034 -2.00839 36.62321 8.17011 -19.85662 -19.5425 5.15448 -3.37166 -3.08846 47.43729 17.47323 40.75336 -0.60789 -21.9974 -31.9883 -12.54161
-0.00646 0.02795 1.30104 733.57879 -32.32888 -5.44218 36.85054 3.44135 0.2777 -22.84584 5.33295 -2.11454 166.38685 -171.25694 -87.1468 134.30126 121.63235 -75.22774 -21.87208 -30.8625 11.98793 6.73593 48.78441 -75.50972 -6.89512 -1.90597 36.28273 8.03881 -19.76667 -20.09731 3.49582 -3.26254 -3.14565 47.73974 17.17638 35.83974 -1.65423 -20.33851 -26.30563 -9.85104
